<svg xmlns="http://www.w3.org/2000/svg" xmlns:xlink="http://www.w3.org/1999/xlink" contentStyleType="text/css" data-diagram-type="CLASS" height="702px" preserveAspectRatio="none" style="width:481px;height:702px;background:#FFFFFF;" version="1.1" viewBox="0 0 481 702" width="481px" zoomAndPan="magnify"><defs/><g><!--class Usuario--><g class="entity" data-entity="Usuario" data-source-line="2" data-uid="ent0002" id="entity_Usuario"><rect fill="#F1F1F1" height="241.7031" rx="2.5" ry="2.5" style="stroke:#181818;stroke-width:0.5;" width="130.2754" x="280" y="7"/><ellipse cx="317.5154" cy="23" fill="#ADD1B2" rx="11" ry="11" style="stroke:#181818;stroke-width:1;"/><path d="M320.281,18.875 Q320.4373,18.6563 320.6248,18.5469 Q320.8123,18.4375 321.031,18.4375 Q321.406,18.4375 321.6404,18.7031 Q321.8748,18.9531 321.8748,19.5625 L321.8748,21.0156 Q321.8748,21.625 321.6404,21.8906 Q321.406,22.1563 321.031,22.1563 Q320.6873,22.1563 320.4841,21.9531 Q320.281,21.7656 320.1716,21.25 Q320.1248,20.8906 319.9373,20.7031 Q319.6091,20.3281 318.9998,20.1094 Q318.3904,19.8906 317.7654,19.8906 Q316.9998,19.8906 316.3591,20.2188 Q315.7341,20.5469 315.2341,21.2969 Q314.7498,22.0469 314.7498,23.0781 L314.7498,24.1719 Q314.7498,25.4063 315.6404,26.2344 Q316.531,27.0469 318.1248,27.0469 Q319.0623,27.0469 319.7185,26.7969 Q320.1091,26.6406 320.531,26.2031 Q320.7966,25.9375 320.9373,25.8594 Q321.0935,25.7813 321.2966,25.7813 Q321.6248,25.7813 321.8748,26.0469 Q322.1404,26.2969 322.1404,26.6406 Q322.1404,26.9844 321.7966,27.3906 Q321.2966,27.9688 320.4998,28.2969 Q319.4216,28.75 318.1248,28.75 Q316.6091,28.75 315.406,28.125 Q314.4216,27.625 313.7341,26.5625 Q313.0466,25.4844 313.0466,24.2031 L313.0466,23.0469 Q313.0466,21.7188 313.656,20.5781 Q314.281,19.4219 315.3748,18.8125 Q316.4685,18.1875 317.7029,18.1875 Q318.4373,18.1875 319.0779,18.3594 Q319.7341,18.5156 320.281,18.875 Z " fill="#000000"/><text fill="#000000" font-family="sans-serif" font-size="14" lengthAdjust="spacing" textLength="48.2412" x="336.5188" y="28.7285">Usuario</text><line style="stroke:#181818;stroke-width:0.5;" x1="281" x2="409.2754" y1="39" y2="39"/><ellipse cx="291" cy="53.3047" fill="none" rx="3" ry="3" style="stroke:#038048;stroke-width:1;"/><text fill="#000000" font-family="sans-serif" font-size="14" lengthAdjust="spacing" textLength="47.4688" x="300" y="57.5332">nombre</text><ellipse cx="291" cy="70.9141" fill="none" rx="3" ry="3" style="stroke:#038048;stroke-width:1;"/><text fill="#000000" font-family="sans-serif" font-size="14" lengthAdjust="spacing" textLength="55.2617" x="300" y="75.1426">apellidos</text><ellipse cx="291" cy="88.5234" fill="none" rx="3" ry="3" style="stroke:#038048;stroke-width:1;"/><text fill="#000000" font-family="sans-serif" font-size="14" lengthAdjust="spacing" textLength="59.917" x="300" y="92.752">password</text><ellipse cx="291" cy="106.1328" fill="none" rx="3" ry="3" style="stroke:#038048;stroke-width:1;"/><text fill="#000000" font-family="sans-serif" font-size="14" lengthAdjust="spacing" textLength="33.4551" x="300" y="110.3613">email</text><ellipse cx="291" cy="123.7422" fill="none" rx="3" ry="3" style="stroke:#038048;stroke-width:1;"/><text fill="#000000" font-family="sans-serif" font-size="14" lengthAdjust="spacing" textLength="49.8203" x="300" y="127.9707">telefono</text><ellipse cx="291" cy="141.3516" fill="none" rx="3" ry="3" style="stroke:#038048;stroke-width:1;"/><text fill="#000000" font-family="sans-serif" font-size="14" lengthAdjust="spacing" textLength="18.6826" x="300" y="145.5801">dni</text><ellipse cx="291" cy="158.9609" fill="none" rx="3" ry="3" style="stroke:#038048;stroke-width:1;"/><text fill="#000000" font-family="sans-serif" font-size="14" lengthAdjust="spacing" textLength="104.2754" x="300" y="163.1895">fechaNacimiento</text><ellipse cx="291" cy="176.5703" fill="none" rx="3" ry="3" style="stroke:#038048;stroke-width:1;"/><text fill="#000000" font-family="sans-serif" font-size="14" lengthAdjust="spacing" textLength="56.0273" x="300" y="180.7988">direccion</text><ellipse cx="291" cy="194.1797" fill="none" rx="3" ry="3" style="stroke:#038048;stroke-width:1;"/><text fill="#000000" font-family="sans-serif" font-size="14" lengthAdjust="spacing" textLength="42.0342" x="300" y="198.4082">estado</text><ellipse cx="291" cy="211.7891" fill="none" rx="3" ry="3" style="stroke:#038048;stroke-width:1;"/><text fill="#000000" font-family="sans-serif" font-size="14" lengthAdjust="spacing" textLength="30.3447" x="300" y="216.0176">roles</text><ellipse cx="291" cy="229.3984" fill="none" rx="3" ry="3" style="stroke:#038048;stroke-width:1;"/><text fill="#000000" font-family="sans-serif" font-size="14" lengthAdjust="spacing" textLength="53.6826" x="300" y="233.627">reservas</text><line style="stroke:#181818;stroke-width:0.5;" x1="281" x2="409.2754" y1="240.7031" y2="240.7031"/></g><!--class Reserva--><g class="entity" data-entity="Reserva" data-source-line="16" data-uid="ent0003" id="entity_Reserva"><rect fill="#F1F1F1" height="153.6563" rx="2.5" ry="2.5" style="stroke:#181818;stroke-width:0.5;" width="112.3789" x="163" y="327"/><ellipse cx="190.7116" cy="343" fill="#ADD1B2" rx="11" ry="11" style="stroke:#181818;stroke-width:1;"/><path d="M193.4772,338.875 Q193.6335,338.6563 193.821,338.5469 Q194.0085,338.4375 194.2272,338.4375 Q194.6022,338.4375 194.8366,338.7031 Q195.071,338.9531 195.071,339.5625 L195.071,341.0156 Q195.071,341.625 194.8366,341.8906 Q194.6022,342.1563 194.2272,342.1563 Q193.8835,342.1563 193.6804,341.9531 Q193.4772,341.7656 193.3679,341.25 Q193.321,340.8906 193.1335,340.7031 Q192.8054,340.3281 192.196,340.1094 Q191.5866,339.8906 190.9616,339.8906 Q190.196,339.8906 189.5554,340.2188 Q188.9304,340.5469 188.4304,341.2969 Q187.946,342.0469 187.946,343.0781 L187.946,344.1719 Q187.946,345.4063 188.8366,346.2344 Q189.7272,347.0469 191.321,347.0469 Q192.2585,347.0469 192.9147,346.7969 Q193.3054,346.6406 193.7272,346.2031 Q193.9929,345.9375 194.1335,345.8594 Q194.2897,345.7813 194.4929,345.7813 Q194.821,345.7813 195.071,346.0469 Q195.3366,346.2969 195.3366,346.6406 Q195.3366,346.9844 194.9929,347.3906 Q194.4929,347.9688 193.696,348.2969 Q192.6179,348.75 191.321,348.75 Q189.8054,348.75 188.6022,348.125 Q187.6179,347.625 186.9304,346.5625 Q186.2429,345.4844 186.2429,344.2031 L186.2429,343.0469 Q186.2429,341.7188 186.8522,340.5781 Q187.4772,339.4219 188.571,338.8125 Q189.6647,338.1875 190.8991,338.1875 Q191.6335,338.1875 192.2741,338.3594 Q192.9304,338.5156 193.4772,338.875 Z " fill="#000000"/><text fill="#000000" font-family="sans-serif" font-size="14" lengthAdjust="spacing" textLength="52.1309" x="207.5364" y="348.7285">Reserva</text><line style="stroke:#181818;stroke-width:0.5;" x1="164" x2="274.3789" y1="359" y2="359"/><ellipse cx="174" cy="373.3047" fill="none" rx="3" ry="3" style="stroke:#038048;stroke-width:1;"/><text fill="#000000" font-family="sans-serif" font-size="14" lengthAdjust="spacing" textLength="47.4688" x="183" y="377.5332">nombre</text><ellipse cx="174" cy="390.9141" fill="none" rx="3" ry="3" style="stroke:#038048;stroke-width:1;"/><text fill="#000000" font-family="sans-serif" font-size="14" lengthAdjust="spacing" textLength="66.9307" x="183" y="395.1426">fechaInicio</text><ellipse cx="174" cy="408.5234" fill="none" rx="3" ry="3" style="stroke:#038048;stroke-width:1;"/><text fill="#000000" font-family="sans-serif" font-size="14" lengthAdjust="spacing" textLength="53.6963" x="183" y="412.752">fechaFin</text><ellipse cx="174" cy="426.1328" fill="none" rx="3" ry="3" style="stroke:#038048;stroke-width:1;"/><text fill="#000000" font-family="sans-serif" font-size="14" lengthAdjust="spacing" textLength="86.3789" x="183" y="430.3613">numPersonas</text><ellipse cx="174" cy="443.7422" fill="none" rx="3" ry="3" style="stroke:#038048;stroke-width:1;"/><text fill="#000000" font-family="sans-serif" font-size="14" lengthAdjust="spacing" textLength="69.2549" x="183" y="447.9707">precioTotal</text><ellipse cx="174" cy="461.3516" fill="none" rx="3" ry="3" style="stroke:#038048;stroke-width:1;"/><text fill="#000000" font-family="sans-serif" font-size="14" lengthAdjust="spacing" textLength="42.0342" x="183" y="465.5801">estado</text><line style="stroke:#181818;stroke-width:0.5;" x1="164" x2="274.3789" y1="472.6563" y2="472.6563"/></g><!--class Review--><g class="entity" data-entity="Review" data-source-line="25" data-uid="ent0004" id="entity_Review"><rect fill="#F1F1F1" height="136.0469" rx="2.5" ry="2.5" style="stroke:#181818;stroke-width:0.5;" width="111.5996" x="226" y="559"/><ellipse cx="256.1633" cy="575" fill="#ADD1B2" rx="11" ry="11" style="stroke:#181818;stroke-width:1;"/><path d="M258.929,570.875 Q259.0852,570.6563 259.2727,570.5469 Q259.4602,570.4375 259.679,570.4375 Q260.054,570.4375 260.2883,570.7031 Q260.5227,570.9531 260.5227,571.5625 L260.5227,573.0156 Q260.5227,573.625 260.2883,573.8906 Q260.054,574.1563 259.679,574.1563 Q259.3352,574.1563 259.1321,573.9531 Q258.929,573.7656 258.8196,573.25 Q258.7727,572.8906 258.5852,572.7031 Q258.2571,572.3281 257.6477,572.1094 Q257.0383,571.8906 256.4133,571.8906 Q255.6477,571.8906 255.0071,572.2188 Q254.3821,572.5469 253.8821,573.2969 Q253.3977,574.0469 253.3977,575.0781 L253.3977,576.1719 Q253.3977,577.4063 254.2883,578.2344 Q255.179,579.0469 256.7727,579.0469 Q257.7102,579.0469 258.3665,578.7969 Q258.7571,578.6406 259.179,578.2031 Q259.4446,577.9375 259.5852,577.8594 Q259.7415,577.7813 259.9446,577.7813 Q260.2727,577.7813 260.5227,578.0469 Q260.7883,578.2969 260.7883,578.6406 Q260.7883,578.9844 260.4446,579.3906 Q259.9446,579.9688 259.1477,580.2969 Q258.0696,580.75 256.7727,580.75 Q255.2571,580.75 254.054,580.125 Q253.0696,579.625 252.3821,578.5625 Q251.6946,577.4844 251.6946,576.2031 L251.6946,575.0469 Q251.6946,573.7188 252.304,572.5781 Q252.929,571.4219 254.0227,570.8125 Q255.1165,570.1875 256.3508,570.1875 Q257.0852,570.1875 257.7258,570.3594 Q258.3821,570.5156 258.929,570.875 Z " fill="#000000"/><text fill="#000000" font-family="sans-serif" font-size="14" lengthAdjust="spacing" textLength="45.9033" x="273.533" y="580.7285">Review</text><line style="stroke:#181818;stroke-width:0.5;" x1="227" x2="336.5996" y1="591" y2="591"/><ellipse cx="237" cy="605.3047" fill="none" rx="3" ry="3" style="stroke:#038048;stroke-width:1;"/><text fill="#000000" font-family="sans-serif" font-size="14" lengthAdjust="spacing" textLength="40.4551" x="246" y="609.5332">review</text><ellipse cx="237" cy="622.9141" fill="none" rx="3" ry="3" style="stroke:#038048;stroke-width:1;"/><text fill="#000000" font-family="sans-serif" font-size="14" lengthAdjust="spacing" textLength="24.124" x="246" y="627.1426">rate</text><ellipse cx="237" cy="640.5234" fill="none" rx="3" ry="3" style="stroke:#038048;stroke-width:1;"/><text fill="#000000" font-family="sans-serif" font-size="14" lengthAdjust="spacing" textLength="80.917" x="246" y="644.752">rateServicios</text><ellipse cx="237" cy="658.1328" fill="none" rx="3" ry="3" style="stroke:#038048;stroke-width:1;"/><text fill="#000000" font-family="sans-serif" font-size="14" lengthAdjust="spacing" textLength="80.1514" x="246" y="662.3613">rateLimpieza</text><ellipse cx="237" cy="675.7422" fill="none" rx="3" ry="3" style="stroke:#038048;stroke-width:1;"/><text fill="#000000" font-family="sans-serif" font-size="14" lengthAdjust="spacing" textLength="85.5996" x="246" y="679.9707">rateUbicacion</text><line style="stroke:#181818;stroke-width:0.5;" x1="227" x2="336.5996" y1="687.0469" y2="687.0469"/></g><!--class Roles--><g class="entity" data-entity="Roles" data-source-line="33" data-uid="ent0005" id="entity_Roles"><rect fill="#F1F1F1" height="65.6094" rx="2.5" ry="2.5" style="stroke:#181818;stroke-width:0.5;" width="67.793" x="407" y="371"/><ellipse cx="422" cy="387" fill="#ADD1B2" rx="11" ry="11" style="stroke:#181818;stroke-width:1;"/><path d="M424.7656,382.875 Q424.9219,382.6563 425.1094,382.5469 Q425.2969,382.4375 425.5156,382.4375 Q425.8906,382.4375 426.125,382.7031 Q426.3594,382.9531 426.3594,383.5625 L426.3594,385.0156 Q426.3594,385.625 426.125,385.8906 Q425.8906,386.1563 425.5156,386.1563 Q425.1719,386.1563 424.9688,385.9531 Q424.7656,385.7656 424.6563,385.25 Q424.6094,384.8906 424.4219,384.7031 Q424.0938,384.3281 423.4844,384.1094 Q422.875,383.8906 422.25,383.8906 Q421.4844,383.8906 420.8438,384.2188 Q420.2188,384.5469 419.7188,385.2969 Q419.2344,386.0469 419.2344,387.0781 L419.2344,388.1719 Q419.2344,389.4063 420.125,390.2344 Q421.0156,391.0469 422.6094,391.0469 Q423.5469,391.0469 424.2031,390.7969 Q424.5938,390.6406 425.0156,390.2031 Q425.2813,389.9375 425.4219,389.8594 Q425.5781,389.7813 425.7813,389.7813 Q426.1094,389.7813 426.3594,390.0469 Q426.625,390.2969 426.625,390.6406 Q426.625,390.9844 426.2813,391.3906 Q425.7813,391.9688 424.9844,392.2969 Q423.9063,392.75 422.6094,392.75 Q421.0938,392.75 419.8906,392.125 Q418.9063,391.625 418.2188,390.5625 Q417.5313,389.4844 417.5313,388.2031 L417.5313,387.0469 Q417.5313,385.7188 418.1406,384.5781 Q418.7656,383.4219 419.8594,382.8125 Q420.9531,382.1875 422.1875,382.1875 Q422.9219,382.1875 423.5625,382.3594 Q424.2188,382.5156 424.7656,382.875 Z " fill="#000000"/><text fill="#000000" font-family="sans-serif" font-size="14" lengthAdjust="spacing" textLength="35.793" x="436" y="392.7285">Roles</text><line style="stroke:#181818;stroke-width:0.5;" x1="408" x2="473.793" y1="403" y2="403"/><ellipse cx="418" cy="417.3047" fill="none" rx="3" ry="3" style="stroke:#038048;stroke-width:1;"/><text fill="#000000" font-family="sans-serif" font-size="14" lengthAdjust="spacing" textLength="35.0205" x="427" y="421.5332">name</text><line style="stroke:#181818;stroke-width:0.5;" x1="408" x2="473.793" y1="428.6094" y2="428.6094"/></g><!--class Recurso--><g class="entity" data-entity="Recurso" data-source-line="37" data-uid="ent0006" id="entity_Recurso"><rect fill="#F1F1F1" height="136.0469" rx="2.5" ry="2.5" style="stroke:#181818;stroke-width:0.5;" width="100.7031" x="13.5" y="60"/><ellipse cx="35.9575" cy="76" fill="#ADD1B2" rx="11" ry="11" style="stroke:#181818;stroke-width:1;"/><path d="M38.7231,71.875 Q38.8794,71.6563 39.0669,71.5469 Q39.2544,71.4375 39.4731,71.4375 Q39.8481,71.4375 40.0825,71.7031 Q40.3169,71.9531 40.3169,72.5625 L40.3169,74.0156 Q40.3169,74.625 40.0825,74.8906 Q39.8481,75.1563 39.4731,75.1563 Q39.1294,75.1563 38.9263,74.9531 Q38.7231,74.7656 38.6138,74.25 Q38.5669,73.8906 38.3794,73.7031 Q38.0513,73.3281 37.4419,73.1094 Q36.8325,72.8906 36.2075,72.8906 Q35.4419,72.8906 34.8013,73.2188 Q34.1763,73.5469 33.6763,74.2969 Q33.1919,75.0469 33.1919,76.0781 L33.1919,77.1719 Q33.1919,78.4063 34.0825,79.2344 Q34.9731,80.0469 36.5669,80.0469 Q37.5044,80.0469 38.1606,79.7969 Q38.5513,79.6406 38.9731,79.2031 Q39.2388,78.9375 39.3794,78.8594 Q39.5356,78.7813 39.7388,78.7813 Q40.0669,78.7813 40.3169,79.0469 Q40.5825,79.2969 40.5825,79.6406 Q40.5825,79.9844 40.2388,80.3906 Q39.7388,80.9688 38.9419,81.2969 Q37.8638,81.75 36.5669,81.75 Q35.0513,81.75 33.8481,81.125 Q32.8638,80.625 32.1763,79.5625 Q31.4888,78.4844 31.4888,77.2031 L31.4888,76.0469 Q31.4888,74.7188 32.0981,73.5781 Q32.7231,72.4219 33.8169,71.8125 Q34.9106,71.1875 36.145,71.1875 Q36.8794,71.1875 37.52,71.3594 Q38.1763,71.5156 38.7231,71.875 Z " fill="#000000"/><text fill="#000000" font-family="sans-serif" font-size="14" lengthAdjust="spacing" textLength="52.1309" x="51.6147" y="81.7285">Recurso</text><line style="stroke:#181818;stroke-width:0.5;" x1="14.5" x2="113.2031" y1="92" y2="92"/><ellipse cx="24.5" cy="106.3047" fill="none" rx="3" ry="3" style="stroke:#038048;stroke-width:1;"/><text fill="#000000" font-family="sans-serif" font-size="14" lengthAdjust="spacing" textLength="29.5723" x="33.5" y="110.5332">titulo</text><ellipse cx="24.5" cy="123.9141" fill="none" rx="3" ry="3" style="stroke:#038048;stroke-width:1;"/><text fill="#000000" font-family="sans-serif" font-size="14" lengthAdjust="spacing" textLength="74.7031" x="33.5" y="128.1426">imageString</text><ellipse cx="24.5" cy="141.5234" fill="none" rx="3" ry="3" style="stroke:#038048;stroke-width:1;"/><text fill="#000000" font-family="sans-serif" font-size="14" lengthAdjust="spacing" textLength="70.8135" x="33.5" y="145.752">descripcion</text><ellipse cx="24.5" cy="159.1328" fill="none" rx="3" ry="3" style="stroke:#038048;stroke-width:1;"/><text fill="#000000" font-family="sans-serif" font-size="14" lengthAdjust="spacing" textLength="15.5586" x="33.5" y="163.3613">url</text><ellipse cx="24.5" cy="176.7422" fill="none" rx="3" ry="3" style="stroke:#038048;stroke-width:1;"/><text fill="#000000" font-family="sans-serif" font-size="14" lengthAdjust="spacing" textLength="57.5928" x="33.5" y="180.9707">categoria</text><line style="stroke:#181818;stroke-width:0.5;" x1="14.5" x2="113.2031" y1="188.0469" y2="188.0469"/></g><!--class Media--><g class="entity" data-entity="Media" data-source-line="45" data-uid="ent0007" id="entity_Media"><rect fill="#F1F1F1" height="136.0469" rx="2.5" ry="2.5" style="stroke:#181818;stroke-width:0.5;" width="95.2549" x="149.5" y="60"/><ellipse cx="175.8058" cy="76" fill="#ADD1B2" rx="11" ry="11" style="stroke:#181818;stroke-width:1;"/><path d="M178.5714,71.875 Q178.7277,71.6563 178.9152,71.5469 Q179.1027,71.4375 179.3214,71.4375 Q179.6964,71.4375 179.9308,71.7031 Q180.1652,71.9531 180.1652,72.5625 L180.1652,74.0156 Q180.1652,74.625 179.9308,74.8906 Q179.6964,75.1563 179.3214,75.1563 Q178.9777,75.1563 178.7746,74.9531 Q178.5714,74.7656 178.4621,74.25 Q178.4152,73.8906 178.2277,73.7031 Q177.8996,73.3281 177.2902,73.1094 Q176.6808,72.8906 176.0558,72.8906 Q175.2902,72.8906 174.6496,73.2188 Q174.0246,73.5469 173.5246,74.2969 Q173.0402,75.0469 173.0402,76.0781 L173.0402,77.1719 Q173.0402,78.4063 173.9308,79.2344 Q174.8214,80.0469 176.4152,80.0469 Q177.3527,80.0469 178.0089,79.7969 Q178.3996,79.6406 178.8214,79.2031 Q179.0871,78.9375 179.2277,78.8594 Q179.3839,78.7813 179.5871,78.7813 Q179.9152,78.7813 180.1652,79.0469 Q180.4308,79.2969 180.4308,79.6406 Q180.4308,79.9844 180.0871,80.3906 Q179.5871,80.9688 178.7902,81.2969 Q177.7121,81.75 176.4152,81.75 Q174.8996,81.75 173.6964,81.125 Q172.7121,80.625 172.0246,79.5625 Q171.3371,78.4844 171.3371,77.2031 L171.3371,76.0469 Q171.3371,74.7188 171.9464,73.5781 Q172.5714,72.4219 173.6652,71.8125 Q174.7589,71.1875 175.9933,71.1875 Q176.7277,71.1875 177.3683,71.3594 Q178.0246,71.5156 178.5714,71.875 Z " fill="#000000"/><text fill="#000000" font-family="sans-serif" font-size="14" lengthAdjust="spacing" textLength="38.1309" x="192.3182" y="81.7285">Media</text><line style="stroke:#181818;stroke-width:0.5;" x1="150.5" x2="243.7549" y1="92" y2="92"/><ellipse cx="160.5" cy="106.3047" fill="none" rx="3" ry="3" style="stroke:#038048;stroke-width:1;"/><text fill="#000000" font-family="sans-serif" font-size="14" lengthAdjust="spacing" textLength="56.0137" x="169.5" y="110.5332">mediaUrl</text><ellipse cx="160.5" cy="123.9141" fill="none" rx="3" ry="3" style="stroke:#038048;stroke-width:1;"/><text fill="#000000" font-family="sans-serif" font-size="14" lengthAdjust="spacing" textLength="64.5723" x="169.5" y="128.1426">timestamp</text><ellipse cx="160.5" cy="141.5234" fill="none" rx="3" ry="3" style="stroke:#038048;stroke-width:1;"/><text fill="#000000" font-family="sans-serif" font-size="14" lengthAdjust="spacing" textLength="45.1445" x="169.5" y="145.752">caption</text><ellipse cx="160.5" cy="159.1328" fill="none" rx="3" ry="3" style="stroke:#038048;stroke-width:1;"/><text fill="#000000" font-family="sans-serif" font-size="14" lengthAdjust="spacing" textLength="69.2549" x="169.5" y="163.3613">mediaType</text><ellipse cx="160.5" cy="176.7422" fill="none" rx="3" ry="3" style="stroke:#038048;stroke-width:1;"/><text fill="#000000" font-family="sans-serif" font-size="14" lengthAdjust="spacing" textLength="49.8203" x="169.5" y="180.9707">hashtag</text><line style="stroke:#181818;stroke-width:0.5;" x1="150.5" x2="243.7549" y1="188.0469" y2="188.0469"/></g><!--class WeatherData--><g class="entity" data-entity="WeatherData" data-source-line="53" data-uid="ent0008" id="entity_WeatherData"><rect fill="#F1F1F1" height="136.0469" rx="2.5" ry="2.5" style="stroke:#181818;stroke-width:0.5;" width="114.4824" x="7" y="336"/><ellipse cx="22" cy="352" fill="#ADD1B2" rx="11" ry="11" style="stroke:#181818;stroke-width:1;"/><path d="M24.7656,347.875 Q24.9219,347.6563 25.1094,347.5469 Q25.2969,347.4375 25.5156,347.4375 Q25.8906,347.4375 26.125,347.7031 Q26.3594,347.9531 26.3594,348.5625 L26.3594,350.0156 Q26.3594,350.625 26.125,350.8906 Q25.8906,351.1563 25.5156,351.1563 Q25.1719,351.1563 24.9688,350.9531 Q24.7656,350.7656 24.6563,350.25 Q24.6094,349.8906 24.4219,349.7031 Q24.0938,349.3281 23.4844,349.1094 Q22.875,348.8906 22.25,348.8906 Q21.4844,348.8906 20.8438,349.2188 Q20.2188,349.5469 19.7188,350.2969 Q19.2344,351.0469 19.2344,352.0781 L19.2344,353.1719 Q19.2344,354.4063 20.125,355.2344 Q21.0156,356.0469 22.6094,356.0469 Q23.5469,356.0469 24.2031,355.7969 Q24.5938,355.6406 25.0156,355.2031 Q25.2813,354.9375 25.4219,354.8594 Q25.5781,354.7813 25.7813,354.7813 Q26.1094,354.7813 26.3594,355.0469 Q26.625,355.2969 26.625,355.6406 Q26.625,355.9844 26.2813,356.3906 Q25.7813,356.9688 24.9844,357.2969 Q23.9063,357.75 22.6094,357.75 Q21.0938,357.75 19.8906,357.125 Q18.9063,356.625 18.2188,355.5625 Q17.5313,354.4844 17.5313,353.2031 L17.5313,352.0469 Q17.5313,350.7188 18.1406,349.5781 Q18.7656,348.4219 19.8594,347.8125 Q20.9531,347.1875 22.1875,347.1875 Q22.9219,347.1875 23.5625,347.3594 Q24.2188,347.5156 24.7656,347.875 Z " fill="#000000"/><text fill="#000000" font-family="sans-serif" font-size="14" lengthAdjust="spacing" textLength="82.4824" x="36" y="357.7285">WeatherData</text><line style="stroke:#181818;stroke-width:0.5;" x1="8" x2="120.4824" y1="368" y2="368"/><ellipse cx="18" cy="382.3047" fill="none" rx="3" ry="3" style="stroke:#038048;stroke-width:1;"/><text fill="#000000" font-family="sans-serif" font-size="14" lengthAdjust="spacing" textLength="27.248" x="27" y="386.5332">date</text><ellipse cx="18" cy="399.9141" fill="none" rx="3" ry="3" style="stroke:#038048;stroke-width:1;"/><text fill="#000000" font-family="sans-serif" font-size="14" lengthAdjust="spacing" textLength="58.3447" x="27" y="404.1426">minTemp</text><ellipse cx="18" cy="417.5234" fill="none" rx="3" ry="3" style="stroke:#038048;stroke-width:1;"/><text fill="#000000" font-family="sans-serif" font-size="14" lengthAdjust="spacing" textLength="62.2344" x="27" y="421.752">maxTemp</text><ellipse cx="18" cy="435.1328" fill="none" rx="3" ry="3" style="stroke:#038048;stroke-width:1;"/><text fill="#000000" font-family="sans-serif" font-size="14" lengthAdjust="spacing" textLength="75.4893" x="27" y="439.3613">precipitation</text><ellipse cx="18" cy="452.7422" fill="none" rx="3" ry="3" style="stroke:#038048;stroke-width:1;"/><text fill="#000000" font-family="sans-serif" font-size="14" lengthAdjust="spacing" textLength="79.3652" x="27" y="456.9707">classification</text><line style="stroke:#181818;stroke-width:0.5;" x1="8" x2="120.4824" y1="464.0469" y2="464.0469"/></g><!--link Usuario to Review--><g class="link" data-entity-1="Usuario" data-entity-2="Review" data-source-line="61" data-uid="lnk9" id="link_Usuario_Review"><path codeLine="61" d="M329.75,249.31 C317.44,346.41 300.57,479.47 290.53,558.7" fill="none" id="Usuario-Review" style="stroke:#181818;stroke-width:1;"/><text fill="#000000" font-family="sans-serif" font-size="13" lengthAdjust="spacing" textLength="25.2891" x="321" y="409.4951">crea</text><text fill="#000000" font-family="sans-serif" font-size="13" lengthAdjust="spacing" textLength="7.23" x="321.6647" y="270.2996">1</text><text fill="#000000" font-family="sans-serif" font-size="13" lengthAdjust="spacing" textLength="21.6836" x="269.3827" y="548.3424">0..n</text></g><!--link Usuario to Reserva--><g class="link" data-entity-1="Usuario" data-entity-2="Reserva" data-source-line="62" data-uid="lnk10" id="link_Usuario_Reserva"><path codeLine="62" d="M289.73,249.18 C277.63,275.49 265.15,302.65 254.1,326.68" fill="none" id="Usuario-Reserva" style="stroke:#181818;stroke-width:1;"/><text fill="#000000" font-family="sans-serif" font-size="13" lengthAdjust="spacing" textLength="38.2954" x="276" y="293.4951">realiza</text><text fill="#000000" font-family="sans-serif" font-size="13" lengthAdjust="spacing" textLength="7.23" x="279.331" y="270.1621">1</text><text fill="#000000" font-family="sans-serif" font-size="13" lengthAdjust="spacing" textLength="21.6836" x="235.4592" y="316.0762">0..n</text></g><!--link Usuario to Roles--><g class="link" data-entity-1="Usuario" data-entity-2="Roles" data-source-line="63" data-uid="lnk11" id="link_Usuario_Roles"><path codeLine="63" d="M387.11,249.18 C402.72,293.76 419.19,340.74 429.75,370.88" fill="none" id="Usuario-Roles" style="stroke:#181818;stroke-width:1;"/><text fill="#000000" font-family="sans-serif" font-size="13" lengthAdjust="spacing" textLength="28.1899" x="402" y="293.4951">tiene</text><text fill="#000000" font-family="sans-serif" font-size="13" lengthAdjust="spacing" textLength="7.23" x="382.3408" y="270.1621">1</text><text fill="#000000" font-family="sans-serif" font-size="13" lengthAdjust="spacing" textLength="21.6836" x="404.3559" y="359.9707">1..n</text></g><!--link Reserva to Review--><g class="link" data-entity-1="Reserva" data-entity-2="Review" data-source-line="64" data-uid="lnk12" id="link_Reserva_Review"><path codeLine="64" d="M240.68,481.06 C247.87,506.28 255.82,534.16 262.81,558.68" fill="none" id="Reserva-Review" style="stroke:#181818;stroke-width:1;"/><text fill="#000000" font-family="sans-serif" font-size="13" lengthAdjust="spacing" textLength="28.1899" x="256" y="525.4951">tiene</text><text fill="#000000" font-family="sans-serif" font-size="13" lengthAdjust="spacing" textLength="7.23" x="235.2925" y="502.1617">1</text><text fill="#000000" font-family="sans-serif" font-size="13" lengthAdjust="spacing" textLength="21.6836" x="238.8041" y="548.3203">0..n</text></g><!--SRC=[TLBBJiCm4BpdAw9SKIjwxHaX8G52j1NdhRDDLl9BQwU58luTnubZ8o0dptezCpiR8S6v-k06O3BrPrM7xwRMHXqPPm0MfQJMk1dRyE9Yk9qXAY0vdprAF1bjPjXgcayd53qyWo15gFroJun2aD69odbeqoKRYKcIqI6VmLLVLIMYuzUfyhVZgFQWAL2NbNjAGdfGByZEQ5Y62ax8x8q7-TDCeNWcl2o27642uB4uxeArKTmLjKTIbl0AHUbm905n_2mo3fs70eMb0J44pykj9p_8D20fw73dcNINmaKdc6mHxy1fDX7KEyC4cVq9MyfngX4TbdvFQen3sUMzzPatDky_R8gW1zTxw3Bt6uBlaU_0PuKsHwP8xt7XLl1UeBWNInuAlKXAfn2UdyDB_s-pQUhLgcvkrslTf8rjQy48__PC_z4sB1GaNN_tRQQ-k9XjI08rLkdLFtfJqpS0]--></g></svg>